<svg width="674" height="537" viewBox="0 0 674 537" fill="none" xmlns="http://www.w3.org/2000/svg">
<circle cx="210.774" cy="354.452" r="6.29032" fill="#F9F9F9"/>
<circle cx="210.774" cy="452.194" r="6.29032" fill="#F9F9F9"/>
<circle cx="113.032" cy="354.452" r="6.29032" fill="#F9F9F9"/>
<circle cx="113.032" cy="452.194" r="6.29032" fill="#F9F9F9"/>
<circle cx="15.2903" cy="354.452" r="6.29032" fill="#F9F9F9"/>
<circle cx="15.2903" cy="452.194" r="6.29032" fill="#F9F9F9"/>
<circle cx="178.194" cy="354.452" r="6.29032" fill="#F9F9F9"/>
<circle cx="178.194" cy="452.194" r="6.29032" fill="#F9F9F9"/>
<circle cx="80.4517" cy="354.452" r="6.29032" fill="#F9F9F9"/>
<circle cx="80.4517" cy="452.194" r="6.29032" fill="#F9F9F9"/>
<circle cx="145.613" cy="354.452" r="6.29032" fill="#F9F9F9"/>
<circle cx="145.613" cy="452.194" r="6.29032" fill="#F9F9F9"/>
<circle cx="47.871" cy="354.452" r="6.29032" fill="#F9F9F9"/>
<circle cx="47.871" cy="452.194" r="6.29032" fill="#F9F9F9"/>
<circle cx="210.774" cy="289.29" r="6.29032" fill="#F9F9F9"/>
<circle cx="113.032" cy="289.29" r="6.29032" fill="#F9F9F9"/>
<circle cx="15.2903" cy="289.29" r="6.29032" fill="#F9F9F9"/>
<circle cx="178.194" cy="289.29" r="6.29032" fill="#F9F9F9"/>
<circle cx="80.4517" cy="289.29" r="6.29032" fill="#F9F9F9"/>
<circle cx="145.613" cy="289.29" r="6.29032" fill="#F9F9F9"/>
<circle cx="210.774" cy="387.032" r="6.29032" fill="#F9F9F9"/>
<circle cx="210.774" cy="484.774" r="6.29032" fill="#F9F9F9"/>
<circle cx="113.032" cy="387.032" r="6.29032" fill="#F9F9F9"/>
<circle cx="113.032" cy="484.774" r="6.29032" fill="#F9F9F9"/>
<circle cx="15.2903" cy="387.032" r="6.29032" fill="#F9F9F9"/>
<circle cx="178.194" cy="387.032" r="6.29032" fill="#F9F9F9"/>
<circle cx="178.194" cy="484.774" r="6.29032" fill="#F9F9F9"/>
<circle cx="80.4517" cy="387.032" r="6.29032" fill="#F9F9F9"/>
<circle cx="80.4517" cy="484.774" r="6.29032" fill="#F9F9F9"/>
<circle cx="145.613" cy="387.032" r="6.29032" fill="#F9F9F9"/>
<circle cx="145.613" cy="484.774" r="6.29032" fill="#F9F9F9"/>
<circle cx="47.871" cy="387.032" r="6.29032" fill="#F9F9F9"/>
<circle cx="47.871" cy="484.774" r="6.29032" fill="#F9F9F9"/>
<circle cx="210.774" cy="321.871" r="6.29032" fill="#F9F9F9"/>
<circle cx="113.032" cy="321.871" r="6.29032" fill="#F9F9F9"/>
<circle cx="15.2903" cy="321.871" r="6.29032" fill="#F9F9F9"/>
<circle cx="178.194" cy="321.871" r="6.29032" fill="#F9F9F9"/>
<circle cx="80.4517" cy="321.871" r="6.29032" fill="#F9F9F9"/>
<circle cx="47.871" cy="289.29" r="6.29032" fill="#F9F9F9"/>
<circle cx="145.613" cy="321.871" r="6.29032" fill="#F9F9F9"/>
<circle cx="47.871" cy="321.871" r="6.29032" fill="#F9F9F9"/>
<circle cx="210.774" cy="419.613" r="6.29032" fill="#F9F9F9"/>
<circle cx="113.032" cy="419.613" r="6.29032" fill="#F9F9F9"/>
<circle cx="15.2903" cy="419.613" r="6.29032" fill="#F9F9F9"/>
<circle cx="15.2903" cy="484.774" r="6.29032" fill="#F9F9F9"/>
<circle cx="178.194" cy="419.613" r="6.29032" fill="#F9F9F9"/>
<circle cx="80.4517" cy="419.613" r="6.29032" fill="#F9F9F9"/>
<circle cx="145.613" cy="419.613" r="6.29032" fill="#F9F9F9"/>
<circle cx="47.871" cy="419.613" r="6.29032" fill="#F9F9F9"/>
<g filter="url(#filter0_d_64_1986)">
<circle cx="244.417" cy="223.417" r="191.417" fill="#00C1AA"/>
</g>
<mask id="mask0_64_1986" style="mask-type:alpha" maskUnits="userSpaceOnUse" x="53" y="32" width="383" height="383">
<circle cx="244.417" cy="223.417" r="191.417" fill="#00C1AA"/>
</mask>
<g mask="url(#mask0_64_1986)">
<circle cx="159" cy="309" r="106" fill="#1AD2BC"/>
<circle cx="208.5" cy="313.5" r="114.5" fill="#1EE1CA"/>
</g>
<g filter="url(#filter1_di_64_1986)">
<circle cx="311.417" cy="276.26" r="191.417" fill="white"/>
</g>
<path d="M236.751 309.17V240.771C236.751 229.512 236.469 219.942 235.906 212.06C235.343 204.179 234.499 197.048 233.373 190.668C232.435 184.288 231.215 178.283 229.714 172.654C228.212 166.836 226.524 160.644 224.647 154.076L258.424 141.973C260.864 149.291 262.928 156.328 264.617 163.083C266.493 169.651 267.995 176.688 269.12 184.194C270.246 191.7 271.091 199.863 271.654 208.683C272.217 217.502 272.498 227.729 272.498 239.364V309.17H236.751ZM345.454 183.631C351.646 183.631 357.557 185.039 363.187 187.853C369.004 190.48 374.07 194.046 378.386 198.55C382.89 202.865 386.455 207.932 389.083 213.749C391.897 219.379 393.305 225.29 393.305 231.482C393.305 237.675 391.897 243.68 389.083 249.497C386.455 255.314 382.89 260.475 378.386 264.978C374.07 269.294 369.004 272.86 363.187 275.674C357.557 278.301 351.646 279.615 345.454 279.615C339.261 279.615 333.256 278.301 327.439 275.674C321.622 272.86 316.461 269.294 311.958 264.978C307.642 260.475 304.076 255.314 301.262 249.497C298.635 243.68 297.321 237.675 297.321 231.482C297.321 225.29 298.635 219.379 301.262 213.749C304.076 207.932 307.642 202.865 311.958 198.55C316.461 194.046 321.622 190.48 327.439 187.853C333.256 185.039 339.261 183.631 345.454 183.631ZM345.454 245.556C349.207 245.556 352.397 244.149 355.024 241.334C357.839 238.519 359.246 235.235 359.246 231.482C359.246 227.729 357.839 224.539 355.024 221.912C352.397 219.097 349.207 217.69 345.454 217.69C341.701 217.69 338.417 219.097 335.602 221.912C332.787 224.539 331.38 227.729 331.38 231.482C331.38 235.235 332.787 238.519 335.602 241.334C338.417 244.149 341.701 245.556 345.454 245.556Z" fill="#058B7C"/>
<path d="M201.84 343.889C202.561 343.889 203.083 343.727 203.407 343.404C203.73 343.056 203.892 342.521 203.892 341.799V337.919H208.63V341.799C208.63 342.521 208.854 343.056 209.301 343.404C209.774 343.727 210.371 343.889 211.092 343.889H211.913C212.236 343.889 212.448 344.088 212.547 344.486C212.672 344.884 212.734 345.505 212.734 346.351C212.734 347.271 212.672 347.943 212.547 348.366C212.448 348.789 212.236 349 211.913 349H210.906C209.96 349 209.09 348.863 208.294 348.59C207.498 348.291 206.789 347.669 206.167 346.724C205.546 347.669 204.874 348.291 204.153 348.59C203.431 348.863 202.66 349 201.84 349H189.752C188.732 349 187.849 348.851 187.103 348.552C186.382 348.229 185.785 347.806 185.312 347.284C184.864 346.761 184.529 346.152 184.305 345.456C184.106 344.759 184.006 344.026 184.006 343.254V337.733H188.707V342.023C188.707 342.322 188.72 342.595 188.744 342.844C188.794 343.068 188.894 343.267 189.043 343.441C189.192 343.59 189.403 343.702 189.677 343.777C189.951 343.851 190.324 343.889 190.796 343.889H201.84ZM201.429 335.047H196.915V330.719H201.429V335.047ZM195.684 335.047H191.169V330.719H195.684V335.047ZM214.37 343.889C215.091 343.889 215.613 343.727 215.937 343.404C216.26 343.056 216.422 342.521 216.422 341.799V337.919H221.16V341.799C221.16 342.521 221.384 343.056 221.831 343.404C222.279 343.727 222.864 343.889 223.585 343.889H224.406C224.978 343.889 225.264 344.71 225.264 346.351C225.264 348.117 224.978 349 224.406 349H223.398C222.453 349 221.583 348.863 220.787 348.59C220.016 348.291 219.319 347.669 218.698 346.724C218.051 347.669 217.367 348.291 216.646 348.59C215.949 348.863 215.191 349 214.37 349H211.907C211.584 349 211.373 348.801 211.273 348.403C211.149 347.98 211.087 347.358 211.087 346.538C211.087 345.592 211.149 344.921 211.273 344.523C211.373 344.1 211.584 343.889 211.907 343.889H214.37ZM223.361 357.394H218.847V353.067H223.361V357.394ZM217.616 357.394H213.101V353.067H217.616V357.394ZM225.225 343.889C225.946 343.889 226.469 343.727 226.792 343.404C227.115 343.056 227.277 342.521 227.277 341.799V325.869H232.015V342.21C232.015 344.473 231.468 346.177 230.374 347.321C229.279 348.44 227.7 349 225.635 349H224.404C224.081 349 223.87 348.801 223.77 348.403C223.646 347.98 223.584 347.358 223.584 346.538C223.584 345.592 223.646 344.921 223.77 344.523C223.87 344.1 224.081 343.889 224.404 343.889H225.225ZM241.815 349C241.094 349 240.41 348.913 239.763 348.739C239.116 348.54 238.544 348.217 238.047 347.769C237.574 347.321 237.189 346.737 236.89 346.015C236.617 345.269 236.48 344.349 236.48 343.254V325.869H241.218V342.023C241.218 343.267 241.765 343.889 242.86 343.889H243.867C244.414 343.889 244.688 344.71 244.688 346.351C244.688 348.117 244.414 349 243.867 349H241.815ZM246.322 343.889C246.919 343.889 247.591 343.889 248.337 343.889C249.108 343.889 249.829 343.864 250.501 343.814L246.322 338.33L248.598 334.002H258.448C259.691 334.002 260.686 334.263 261.432 334.785C262.179 335.308 262.688 335.979 262.962 336.8C263.086 337.248 263.149 337.696 263.149 338.143C263.149 338.467 263.111 338.827 263.037 339.225C262.987 339.598 262.85 340.021 262.626 340.494C262.402 340.941 262.079 341.451 261.656 342.023C261.258 342.571 260.711 343.192 260.015 343.889H263.335H265.798C266.121 343.889 266.332 344.088 266.432 344.486C266.556 344.884 266.618 345.505 266.618 346.351C266.618 347.271 266.556 347.943 266.432 348.366C266.332 348.789 266.121 349 265.798 349H262.328C260.885 349 259.579 348.901 258.41 348.702C257.266 348.503 256.172 347.98 255.127 347.135C254.406 347.557 253.71 347.893 253.038 348.142C252.366 348.391 251.682 348.577 250.986 348.702C250.314 348.826 249.63 348.913 248.934 348.963C248.238 348.988 247.504 349 246.733 349H243.86C243.537 349 243.325 348.801 243.226 348.403C243.102 347.98 243.039 347.358 243.039 346.538C243.039 345.592 243.102 344.921 243.226 344.523C243.325 344.1 243.537 343.889 243.86 343.889H246.322ZM258.037 339.412C258.037 338.964 257.689 338.74 256.993 338.74H252.068L255.351 342.844C256.396 342.023 257.105 341.327 257.478 340.755C257.851 340.158 258.037 339.71 258.037 339.412ZM267.211 343.889C267.684 343.889 268.069 343.901 268.368 343.926C268.691 343.926 268.977 343.951 269.226 344.001C269.499 344.05 269.761 344.113 270.009 344.187C270.258 344.262 270.556 344.361 270.905 344.486C269.885 343.864 269.213 343.118 268.89 342.247C268.592 341.377 268.442 340.282 268.442 338.964C268.442 338.292 268.567 337.608 268.815 336.912C269.089 336.191 269.487 335.544 270.009 334.972C270.532 334.4 271.178 333.927 271.949 333.554C272.72 333.181 273.616 332.995 274.636 332.995C275.606 332.995 276.489 333.119 277.284 333.368C278.105 333.616 278.802 334.027 279.374 334.599C279.946 335.171 280.393 335.93 280.717 336.875C281.04 337.82 281.202 338.989 281.202 340.382V342.434C281.202 344.498 280.617 346.115 279.448 347.284C278.304 348.428 276.489 349 274.001 349H265.793C265.47 349 265.259 348.801 265.159 348.403C265.035 347.98 264.973 347.358 264.973 346.538C264.973 345.592 265.035 344.921 265.159 344.523C265.259 344.1 265.47 343.889 265.793 343.889H267.211ZM274.524 338.143C273.852 338.143 273.392 338.342 273.143 338.74C272.894 339.138 272.77 339.549 272.77 339.971C272.77 340.22 272.807 340.469 272.882 340.718C272.957 340.941 273.118 341.19 273.367 341.464C273.616 341.737 273.976 342.036 274.449 342.359C274.946 342.682 275.593 343.056 276.389 343.478C276.513 343.279 276.588 342.993 276.613 342.62C276.638 342.222 276.65 341.887 276.65 341.613V340.792C276.65 340.444 276.613 340.108 276.538 339.785C276.489 339.461 276.377 339.188 276.203 338.964C276.053 338.715 275.842 338.516 275.568 338.367C275.295 338.218 274.946 338.143 274.524 338.143ZM277.098 330.308H272.173V325.794H277.098V330.308ZM296.152 342.844C296.899 342.844 297.433 342.682 297.757 342.359C298.08 342.011 298.242 341.538 298.242 340.941V338.74H296.525C295.655 338.74 295.07 338.964 294.772 339.412C294.498 339.835 294.362 340.382 294.362 341.053C294.362 341.625 294.486 342.073 294.735 342.396C294.983 342.695 295.456 342.844 296.152 342.844ZM302.793 342.023C302.793 343.267 303.34 343.889 304.435 343.889H305.442C305.766 343.889 305.977 344.088 306.076 344.486C306.201 344.884 306.263 345.505 306.263 346.351C306.263 347.271 306.201 347.943 306.076 348.366C305.977 348.789 305.766 349 305.442 349H304.435C303.092 349 302.035 348.789 301.264 348.366C300.493 347.943 299.896 347.271 299.473 346.351C298.851 346.973 298.155 347.371 297.384 347.545C296.637 347.694 295.904 347.769 295.182 347.769C293.441 347.769 292.111 347.222 291.19 346.127C290.295 345.033 289.847 343.453 289.847 341.389C289.847 340.469 289.972 339.573 290.22 338.703C290.494 337.807 290.879 337.012 291.377 336.315C291.899 335.619 292.546 335.059 293.317 334.636C294.088 334.213 294.983 334.002 296.003 334.002H298.242V331.54H302.793V342.023ZM309.538 343.889C308.916 343.043 308.518 342.297 308.344 341.65C308.17 340.979 308.083 340.282 308.083 339.561C308.083 338.74 308.244 337.944 308.568 337.173C308.891 336.402 309.351 335.731 309.948 335.159C310.545 334.562 311.254 334.089 312.075 333.741C312.92 333.368 313.853 333.181 314.873 333.181C315.893 333.181 316.788 333.368 317.559 333.741C318.33 334.114 318.964 334.599 319.462 335.196C319.984 335.793 320.37 336.464 320.618 337.211C320.892 337.932 321.029 338.653 321.029 339.374C321.029 340.394 320.892 341.252 320.618 341.949C320.37 342.62 320.034 343.267 319.611 343.889H323.715C324.262 343.889 324.536 344.71 324.536 346.351C324.536 348.117 324.262 349 323.715 349H320.208C319.064 349 318.044 348.95 317.149 348.851C316.253 348.726 315.557 348.503 315.059 348.179C314.711 348.378 314.276 348.54 313.754 348.664C313.256 348.764 312.734 348.838 312.187 348.888C311.664 348.938 311.142 348.975 310.62 349C310.122 349 309.699 349 309.351 349H305.434C305.11 349 304.899 348.801 304.799 348.403C304.675 347.98 304.613 347.358 304.613 346.538C304.613 345.592 304.675 344.921 304.799 344.523C304.899 344.1 305.11 343.889 305.434 343.889H309.538ZM314.574 338.33C314.002 338.33 313.53 338.516 313.157 338.889C312.808 339.262 312.634 339.76 312.634 340.382C312.634 340.879 312.796 341.377 313.119 341.874C313.443 342.372 313.965 342.832 314.686 343.254C315.408 342.832 315.893 342.372 316.141 341.874C316.39 341.377 316.514 340.879 316.514 340.382C316.514 339.76 316.328 339.262 315.955 338.889C315.607 338.516 315.146 338.33 314.574 338.33ZM319.797 330.532H315.283V326.205H319.797V330.532ZM314.052 330.532H309.538V326.205H314.052V330.532ZM327.231 343.889C327.952 343.889 328.462 343.727 328.76 343.404C329.084 343.056 329.245 342.521 329.245 341.799V337.919H333.983V342.21C333.983 344.473 333.436 346.177 332.342 347.321C331.272 348.44 329.705 349 327.641 349H323.724C323.4 349 323.189 348.801 323.089 348.403C322.965 347.98 322.903 347.358 322.903 346.538C322.903 345.592 322.965 344.921 323.089 344.523C323.189 344.1 323.4 343.889 323.724 343.889H327.231ZM329.469 357.581H324.544V353.067H329.469V357.581ZM343.43 349C342.709 349 342.025 348.913 341.378 348.739C340.731 348.54 340.159 348.217 339.662 347.769C339.189 347.321 338.804 346.737 338.505 346.015C338.231 345.269 338.095 344.349 338.095 343.254V325.869H342.833V342.023C342.833 343.267 343.38 343.889 344.474 343.889H345.482C346.029 343.889 346.303 344.71 346.303 346.351C346.303 348.117 346.029 349 345.482 349H343.43ZM347.34 343.889C348.708 343.889 349.392 343.192 349.392 341.799V337.919H354.093V341.799C354.093 342.521 354.304 343.056 354.727 343.404C355.175 343.727 355.71 343.889 356.332 343.889C357.152 343.889 357.737 343.727 358.085 343.404C358.433 343.056 358.607 342.521 358.607 341.799V337.919H363.346V341.799C363.346 342.521 363.52 343.056 363.868 343.404C364.241 343.727 364.676 343.889 365.174 343.889C366.392 343.889 367.002 343.192 367.002 341.799V337.919H371.74V342.21C371.74 344.473 371.193 346.177 370.098 347.321C369.004 348.44 367.425 349 365.36 349C364.564 349 363.768 348.863 362.972 348.59C362.201 348.291 361.505 347.669 360.883 346.724C360.261 347.669 359.553 348.291 358.757 348.59C357.961 348.863 357.152 349 356.332 349C355.411 349 354.553 348.863 353.757 348.59C352.961 348.291 352.252 347.669 351.631 346.724C351.009 347.669 350.337 348.291 349.616 348.59C348.92 348.863 348.161 349 347.34 349H345.475C345.151 349 344.94 348.801 344.841 348.403C344.716 347.98 344.654 347.358 344.654 346.538C344.654 345.592 344.716 344.921 344.841 344.523C344.94 344.1 345.151 343.889 345.475 343.889H347.34ZM400.868 347.955C400.868 349.398 400.644 350.729 400.197 351.947C399.774 353.191 399.152 354.26 398.331 355.156C397.511 356.051 396.516 356.748 395.347 357.245C394.178 357.767 392.872 358.029 391.429 358.029H388.967C386.181 358.029 384.017 357.171 382.475 355.454C380.933 353.738 380.162 351.388 380.162 348.403V341.613H384.863V348.179C384.863 348.901 384.938 349.547 385.087 350.119C385.236 350.716 385.485 351.214 385.833 351.612C386.206 352.034 386.691 352.358 387.288 352.582C387.91 352.805 388.681 352.917 389.601 352.917H391.243C392.213 352.917 393.009 352.781 393.63 352.507C394.277 352.258 394.787 351.898 395.16 351.425C395.533 350.977 395.794 350.455 395.944 349.858C396.093 349.261 396.167 348.627 396.167 347.955V325.869H400.868V347.955ZM410.687 349C409.966 349 409.282 348.913 408.635 348.739C407.988 348.54 407.416 348.217 406.919 347.769C406.446 347.321 406.061 346.737 405.762 346.015C405.489 345.269 405.352 344.349 405.352 343.254V325.869H410.09V342.023C410.09 343.267 410.637 343.889 411.732 343.889H412.739C413.286 343.889 413.56 344.71 413.56 346.351C413.56 348.117 413.286 349 412.739 349H410.687ZM414.598 343.889C415.966 343.889 416.649 343.192 416.649 341.799V337.919H421.35V341.799C421.35 342.521 421.562 343.056 421.985 343.404C422.432 343.727 422.967 343.889 423.589 343.889C424.41 343.889 424.994 343.727 425.342 343.404C425.691 343.056 425.865 342.521 425.865 341.799V337.919H430.603V341.799C430.603 342.521 430.777 343.056 431.125 343.404C431.498 343.727 431.934 343.889 432.431 343.889C433.65 343.889 434.259 343.192 434.259 341.799V337.919H438.997V342.21C438.997 344.473 438.45 346.177 437.356 347.321C436.261 348.44 434.682 349 432.618 349C431.822 349 431.026 348.863 430.23 348.59C429.459 348.291 428.762 347.669 428.141 346.724C427.519 347.669 426.81 348.291 426.014 348.59C425.218 348.863 424.41 349 423.589 349C422.669 349 421.811 348.863 421.015 348.59C420.219 348.291 419.51 347.669 418.888 346.724C418.266 347.669 417.595 348.291 416.873 348.59C416.177 348.863 415.418 349 414.598 349H412.732C412.409 349 412.197 348.801 412.098 348.403C411.973 347.98 411.911 347.358 411.911 346.538C411.911 345.592 411.973 344.921 412.098 344.523C412.197 344.1 412.409 343.889 412.732 343.889H414.598Z" fill="#C0A660"/>
<path d="M190.116 384C189.199 384 188.461 383.761 187.902 383.282C187.344 382.79 187.064 382.079 187.064 381.148V379.931C187.064 379.506 187.117 379.14 187.224 378.834C187.33 378.528 187.523 378.249 187.802 377.996H186.965C186.127 377.996 185.495 378.209 185.07 378.635C184.644 379.047 184.431 379.585 184.431 380.25V388.827H183.155V380.21C183.155 379.745 183.235 379.299 183.394 378.874C183.567 378.448 183.813 378.069 184.132 377.737C184.451 377.405 184.85 377.145 185.329 376.959C185.808 376.76 186.366 376.66 187.004 376.66H190.615C191.147 376.66 191.592 376.74 191.951 376.899C192.323 377.046 192.623 377.245 192.849 377.498C193.075 377.75 193.234 378.043 193.327 378.375C193.434 378.694 193.487 379.02 193.487 379.353V381.108C193.487 381.613 193.4 382.052 193.228 382.424C193.055 382.783 192.815 383.082 192.509 383.322C192.217 383.548 191.865 383.721 191.452 383.84C191.04 383.947 190.595 384 190.116 384ZM190.256 382.624C190.867 382.624 191.346 382.491 191.692 382.225C192.051 381.946 192.23 381.527 192.23 380.968V379.652C192.23 379.213 192.104 378.834 191.851 378.515C191.599 378.196 191.193 378.036 190.635 378.036H189.917C189.358 378.036 188.953 378.202 188.7 378.535C188.447 378.854 188.321 379.253 188.321 379.732V380.908C188.321 381.467 188.48 381.892 188.8 382.185C189.132 382.477 189.617 382.624 190.256 382.624ZM197.514 387.471C198.099 387.471 198.611 387.377 199.049 387.191C199.501 387.005 199.88 386.753 200.186 386.433C200.492 386.114 200.725 385.742 200.884 385.316C201.044 384.904 201.137 384.465 201.164 384H199.169C198.491 384 197.932 383.927 197.494 383.781C197.055 383.634 196.709 383.422 196.456 383.142C196.204 382.863 196.024 382.531 195.918 382.145C195.825 381.746 195.778 381.301 195.778 380.809C195.778 380.303 195.851 379.825 195.998 379.373C196.144 378.92 196.357 378.522 196.636 378.176C196.915 377.83 197.261 377.558 197.673 377.358C198.099 377.145 198.584 377.039 199.129 377.039C199.568 377.039 199.987 377.112 200.386 377.258C200.785 377.405 201.137 377.637 201.443 377.956C201.749 378.262 201.988 378.668 202.161 379.173C202.347 379.665 202.44 380.264 202.44 380.968V382.624H204.355C204.514 382.624 204.621 382.684 204.674 382.803C204.741 382.91 204.774 383.076 204.774 383.302C204.774 383.541 204.741 383.721 204.674 383.84C204.621 383.947 204.514 384 204.355 384H202.4C202.374 384.652 202.241 385.27 202.001 385.855C201.775 386.44 201.456 386.952 201.044 387.391C200.632 387.83 200.14 388.175 199.568 388.428C198.996 388.694 198.351 388.827 197.633 388.827H195.519L195.399 387.471H197.514ZM197.015 380.729C197.015 381.061 197.048 381.347 197.115 381.587C197.194 381.826 197.321 382.025 197.494 382.185C197.68 382.331 197.926 382.444 198.232 382.524C198.537 382.591 198.923 382.624 199.388 382.624H201.184V381.128C201.184 380.144 200.991 379.439 200.605 379.014C200.219 378.588 199.688 378.375 199.009 378.375C198.371 378.375 197.879 378.588 197.533 379.014C197.188 379.439 197.015 380.011 197.015 380.729ZM207.651 382.624C207.824 382.624 207.937 382.684 207.99 382.803C208.057 382.91 208.09 383.076 208.09 383.302C208.09 383.541 208.057 383.721 207.99 383.84C207.937 383.947 207.824 384 207.651 384H204.36C204.187 384 204.074 383.947 204.021 383.84C203.954 383.734 203.921 383.568 203.921 383.342C203.921 383.102 203.954 382.923 204.021 382.803C204.074 382.684 204.187 382.624 204.36 382.624H207.651ZM210.943 382.624C211.116 382.624 211.229 382.684 211.282 382.803C211.348 382.91 211.382 383.076 211.382 383.302C211.382 383.541 211.348 383.721 211.282 383.84C211.229 383.947 211.116 384 210.943 384H207.652C207.479 384 207.366 383.947 207.313 383.84C207.246 383.734 207.213 383.568 207.213 383.342C207.213 383.102 207.246 382.923 207.313 382.803C207.366 382.684 207.479 382.624 207.652 382.624H210.943ZM212.46 382.624C213.018 382.624 213.444 382.484 213.736 382.205C214.029 381.926 214.175 381.54 214.175 381.048V378.296H215.471V381.048C215.471 381.341 215.518 381.587 215.611 381.786C215.717 381.985 215.85 382.152 216.01 382.285C216.169 382.404 216.349 382.491 216.548 382.544C216.748 382.597 216.954 382.624 217.167 382.624H217.765C218.071 382.624 218.224 382.85 218.224 383.302C218.224 383.767 218.071 384 217.765 384H217.127C216.648 384 216.203 383.914 215.79 383.741C215.378 383.555 215.039 383.209 214.773 382.704C214.467 383.209 214.115 383.555 213.716 383.741C213.331 383.914 212.912 384 212.46 384H210.944C210.771 384 210.658 383.947 210.605 383.84C210.538 383.734 210.505 383.568 210.505 383.342C210.505 383.102 210.538 382.923 210.605 382.803C210.658 382.684 210.771 382.624 210.944 382.624H212.46ZM216.329 387.73H214.813V386.314H216.329V387.73ZM213.736 387.73H212.2V386.314H213.736V387.73ZM221.052 382.624C221.225 382.624 221.338 382.684 221.391 382.803C221.458 382.91 221.491 383.076 221.491 383.302C221.491 383.541 221.458 383.721 221.391 383.84C221.338 383.947 221.225 384 221.052 384H217.761C217.588 384 217.475 383.947 217.422 383.84C217.355 383.734 217.322 383.568 217.322 383.342C217.322 383.102 217.355 382.923 217.422 382.803C217.475 382.684 217.588 382.624 217.761 382.624H221.052ZM222.569 382.624C223.127 382.624 223.553 382.484 223.845 382.205C224.138 381.926 224.284 381.54 224.284 381.048V378.296H225.581V381.048C225.581 381.341 225.627 381.587 225.72 381.786C225.827 381.985 225.96 382.152 226.119 382.285C226.279 382.404 226.458 382.491 226.658 382.544C226.857 382.597 227.063 382.624 227.276 382.624H227.874C228.18 382.624 228.333 382.85 228.333 383.302C228.333 383.767 228.18 384 227.874 384H227.236C226.757 384 226.312 383.914 225.9 383.741C225.487 383.555 225.148 383.209 224.882 382.704C224.577 383.209 224.224 383.555 223.825 383.741C223.44 383.914 223.021 384 222.569 384H221.053C220.88 384 220.767 383.947 220.714 383.84C220.647 383.734 220.614 383.568 220.614 383.342C220.614 383.102 220.647 382.923 220.714 382.803C220.767 382.684 220.88 382.624 221.053 382.624H222.569ZM225.62 375.742H223.945V374.286H225.62V375.742ZM231.161 382.624C231.334 382.624 231.447 382.684 231.5 382.803C231.567 382.91 231.6 383.076 231.6 383.302C231.6 383.541 231.567 383.721 231.5 383.84C231.447 383.947 231.334 384 231.161 384H227.87C227.697 384 227.584 383.947 227.531 383.84C227.465 383.734 227.431 383.568 227.431 383.342C227.431 383.102 227.465 382.923 227.531 382.803C227.584 382.684 227.697 382.624 227.87 382.624H231.161ZM234.453 382.624C234.626 382.624 234.739 382.684 234.792 382.803C234.859 382.91 234.892 383.076 234.892 383.302C234.892 383.541 234.859 383.721 234.792 383.84C234.739 383.947 234.626 384 234.453 384H231.162C230.989 384 230.876 383.947 230.823 383.84C230.757 383.734 230.723 383.568 230.723 383.342C230.723 383.102 230.757 382.923 230.823 382.803C230.876 382.684 230.989 382.624 231.162 382.624H234.453ZM234.972 382.624C235.531 382.624 235.95 382.484 236.229 382.205C236.522 381.926 236.668 381.54 236.668 381.048V371.634H237.964V381.048C237.964 381.341 238.011 381.587 238.104 381.786C238.21 381.985 238.343 382.152 238.503 382.285C238.662 382.404 238.842 382.491 239.041 382.544C239.241 382.597 239.447 382.624 239.66 382.624H239.939C240.112 382.624 240.225 382.684 240.278 382.803C240.345 382.91 240.378 383.076 240.378 383.302C240.378 383.541 240.345 383.721 240.278 383.84C240.225 383.947 240.112 384 239.939 384H239.62C239.141 384 238.696 383.914 238.283 383.741C237.871 383.555 237.532 383.209 237.266 382.704C236.974 383.209 236.621 383.555 236.209 383.741C235.81 383.914 235.398 384 234.972 384H234.454C234.281 384 234.168 383.947 234.115 383.84C234.048 383.734 234.015 383.568 234.015 383.342C234.015 383.102 234.048 382.923 234.115 382.803C234.168 382.684 234.281 382.624 234.454 382.624H234.972ZM243.238 382.624C243.411 382.624 243.524 382.684 243.577 382.803C243.643 382.91 243.677 383.076 243.677 383.302C243.677 383.541 243.643 383.721 243.577 383.84C243.524 383.947 243.411 384 243.238 384H239.947C239.774 384 239.661 383.947 239.608 383.84C239.541 383.734 239.508 383.568 239.508 383.342C239.508 383.102 239.541 382.923 239.608 382.803C239.661 382.684 239.774 382.624 239.947 382.624H243.238ZM249.003 382.823C248.657 383.023 248.325 383.202 248.006 383.362C247.686 383.508 247.341 383.628 246.968 383.721C246.596 383.814 246.184 383.887 245.732 383.94C245.293 383.98 244.788 384 244.216 384H243.239C243.066 384 242.953 383.947 242.899 383.84C242.833 383.734 242.8 383.568 242.8 383.342C242.8 383.102 242.833 382.923 242.899 382.803C242.953 382.684 243.066 382.624 243.239 382.624H244.236C244.754 382.624 245.213 382.61 245.612 382.584C246.011 382.544 246.377 382.491 246.709 382.424C247.042 382.345 247.354 382.245 247.647 382.125C247.939 382.005 248.238 381.853 248.544 381.666L251.915 379.712C251.809 379.432 251.696 379.18 251.576 378.954C251.456 378.714 251.303 378.515 251.117 378.355C250.944 378.196 250.725 378.076 250.459 377.996C250.193 377.903 249.861 377.857 249.462 377.857H244.994L245.113 376.48H249.641C249.987 376.48 250.339 376.52 250.698 376.6C251.071 376.68 251.416 376.853 251.735 377.119C252.068 377.371 252.374 377.75 252.653 378.256C252.945 378.761 253.185 379.432 253.371 380.27L249.003 382.823ZM249.621 390.123H248.026V388.707H249.621V390.123ZM250.878 387.73H249.282V386.314H250.878V387.73ZM248.345 387.73H246.749V386.314H248.345V387.73ZM264.62 387.471C265.179 387.471 265.697 387.397 266.176 387.251C266.655 387.105 267.067 386.899 267.412 386.633C267.771 386.38 268.051 386.074 268.25 385.715C268.463 385.37 268.569 384.997 268.569 384.598C268.569 384.239 268.47 383.94 268.27 383.701C268.071 383.448 267.678 383.322 267.093 383.322H263.623V379.871C263.623 378.861 263.915 378.043 264.5 377.418C265.085 376.78 265.897 376.461 266.934 376.461H269.228L269.327 377.837H266.854C266.601 377.837 266.355 377.883 266.116 377.976C265.89 378.056 265.684 378.183 265.498 378.355C265.325 378.515 265.179 378.721 265.059 378.974C264.952 379.213 264.899 379.499 264.899 379.831V381.946H267.333C267.825 381.946 268.23 382.012 268.549 382.145C268.882 382.265 269.141 382.438 269.327 382.664C269.527 382.876 269.66 383.129 269.726 383.422C269.806 383.714 269.846 384.027 269.846 384.359C269.846 384.984 269.713 385.569 269.447 386.114C269.181 386.659 268.822 387.131 268.37 387.53C267.918 387.929 267.379 388.242 266.754 388.468C266.143 388.707 265.491 388.827 264.8 388.827H263.104C261.615 388.827 260.458 388.368 259.634 387.451C258.809 386.533 258.397 385.277 258.397 383.681V380.19H259.674V383.641C259.674 384.213 259.74 384.731 259.873 385.197C260.019 385.662 260.239 386.061 260.531 386.393C260.837 386.739 261.216 387.005 261.668 387.191C262.12 387.377 262.665 387.471 263.304 387.471H264.62ZM274.888 384C274.542 384 274.21 383.953 273.89 383.86C273.571 383.754 273.285 383.581 273.033 383.342C272.793 383.102 272.601 382.79 272.454 382.404C272.308 382.005 272.235 381.513 272.235 380.928V371.634H273.531V380.689C273.531 381.247 273.651 381.713 273.89 382.085C274.143 382.444 274.549 382.624 275.107 382.624H275.446C275.739 382.624 275.885 382.85 275.885 383.302C275.885 383.767 275.739 384 275.446 384H274.888ZM278.747 382.624C278.919 382.624 279.032 382.684 279.086 382.803C279.152 382.91 279.185 383.076 279.185 383.302C279.185 383.541 279.152 383.721 279.086 383.84C279.032 383.947 278.919 384 278.747 384H275.456C275.283 384 275.17 383.947 275.116 383.84C275.05 383.734 275.017 383.568 275.017 383.342C275.017 383.102 275.05 382.923 275.116 382.803C275.17 382.684 275.283 382.624 275.456 382.624H278.747ZM282.038 382.624C282.211 382.624 282.324 382.684 282.377 382.803C282.444 382.91 282.477 383.076 282.477 383.302C282.477 383.541 282.444 383.721 282.377 383.84C282.324 383.947 282.211 384 282.038 384H278.747C278.575 384 278.461 383.947 278.408 383.84C278.342 383.734 278.309 383.568 278.309 383.342C278.309 383.102 278.342 382.923 278.408 382.803C278.461 382.684 278.575 382.624 278.747 382.624H282.038ZM287.185 377.617C286.52 377.617 285.988 377.83 285.59 378.256C285.204 378.681 285.011 379.2 285.011 379.811C285.011 380.157 285.084 380.463 285.23 380.729C285.377 380.995 285.563 381.234 285.789 381.447C286.015 381.66 286.261 381.846 286.527 382.005C286.806 382.165 287.079 382.305 287.345 382.424C287.544 382.305 287.764 382.172 288.003 382.025C288.242 381.866 288.462 381.68 288.661 381.467C288.861 381.254 289.027 381.015 289.16 380.749C289.293 380.483 289.359 380.19 289.359 379.871C289.359 379.193 289.166 378.648 288.781 378.236C288.395 377.823 287.863 377.617 287.185 377.617ZM282.039 384C281.866 384 281.753 383.947 281.7 383.84C281.634 383.734 281.6 383.568 281.6 383.342C281.6 383.102 281.634 382.923 281.7 382.803C281.753 382.684 281.866 382.624 282.039 382.624H285.869C285.244 382.278 284.739 381.859 284.353 381.367C283.981 380.875 283.794 380.297 283.794 379.632C283.794 379.193 283.874 378.774 284.034 378.375C284.193 377.963 284.426 377.604 284.732 377.298C285.038 376.992 285.403 376.746 285.829 376.56C286.268 376.374 286.766 376.281 287.325 376.281C287.87 376.281 288.342 376.374 288.741 376.56C289.153 376.746 289.492 376.999 289.758 377.318C290.037 377.624 290.244 377.97 290.376 378.355C290.509 378.741 290.576 379.133 290.576 379.532C290.576 380.755 289.951 381.786 288.701 382.624H292.231C292.75 382.624 293.149 382.504 293.428 382.265C293.721 382.025 293.867 381.713 293.867 381.327C293.867 381.141 293.82 380.942 293.727 380.729C293.648 380.503 293.501 380.27 293.289 380.031L289.678 375.842L290.636 374.945L294.306 379.213C294.652 379.639 294.898 380.037 295.044 380.41C295.19 380.782 295.263 381.148 295.263 381.507C295.263 382.225 295.004 382.823 294.485 383.302C293.98 383.767 293.262 384 292.331 384H290.137C289.525 384 288.98 383.987 288.502 383.96C288.036 383.92 287.664 383.834 287.385 383.701C287.198 383.781 286.966 383.84 286.687 383.88C286.421 383.92 286.141 383.953 285.849 383.98C285.57 383.993 285.29 384 285.011 384C284.745 384 284.519 384 284.333 384H282.039ZM299.19 387.471C299.775 387.471 300.287 387.377 300.726 387.191C301.178 387.005 301.557 386.753 301.863 386.433C302.168 386.114 302.401 385.742 302.561 385.316C302.72 384.904 302.813 384.465 302.84 384H300.845C300.167 384 299.609 383.927 299.17 383.781C298.731 383.634 298.385 383.422 298.133 383.142C297.88 382.863 297.701 382.531 297.594 382.145C297.501 381.746 297.455 381.301 297.455 380.809C297.455 380.303 297.528 379.825 297.674 379.373C297.82 378.92 298.033 378.522 298.312 378.176C298.591 377.83 298.937 377.558 299.349 377.358C299.775 377.145 300.26 377.039 300.805 377.039C301.244 377.039 301.663 377.112 302.062 377.258C302.461 377.405 302.813 377.637 303.119 377.956C303.425 378.262 303.664 378.668 303.837 379.173C304.023 379.665 304.116 380.264 304.116 380.968V382.624H306.031C306.191 382.624 306.297 382.684 306.35 382.803C306.417 382.91 306.45 383.076 306.45 383.302C306.45 383.541 306.417 383.721 306.35 383.84C306.297 383.947 306.191 384 306.031 384H304.077C304.05 384.652 303.917 385.27 303.678 385.855C303.452 386.44 303.132 386.952 302.72 387.391C302.308 387.83 301.816 388.175 301.244 388.428C300.672 388.694 300.028 388.827 299.31 388.827H297.195L297.076 387.471H299.19ZM298.691 380.729C298.691 381.061 298.724 381.347 298.791 381.587C298.871 381.826 298.997 382.025 299.17 382.185C299.356 382.331 299.602 382.444 299.908 382.524C300.214 382.591 300.599 382.624 301.065 382.624H302.86V381.128C302.86 380.144 302.667 379.439 302.281 379.014C301.896 378.588 301.364 378.375 300.686 378.375C300.048 378.375 299.556 378.588 299.21 379.014C298.864 379.439 298.691 380.011 298.691 380.729ZM309.327 382.624C309.5 382.624 309.613 382.684 309.666 382.803C309.733 382.91 309.766 383.076 309.766 383.302C309.766 383.541 309.733 383.721 309.666 383.84C309.613 383.947 309.5 384 309.327 384H306.036C305.863 384 305.75 383.947 305.697 383.84C305.631 383.734 305.598 383.568 305.598 383.342C305.598 383.102 305.631 382.923 305.697 382.803C305.75 382.684 305.863 382.624 306.036 382.624H309.327ZM309.847 382.624C310.405 382.624 310.824 382.484 311.103 382.205C311.396 381.926 311.542 381.54 311.542 381.048V371.634H312.839V381.048C312.839 381.341 312.885 381.587 312.978 381.786C313.085 381.985 313.218 382.152 313.377 382.285C313.537 382.404 313.716 382.491 313.916 382.544C314.115 382.597 314.321 382.624 314.534 382.624H314.813C314.986 382.624 315.099 382.684 315.152 382.803C315.219 382.91 315.252 383.076 315.252 383.302C315.252 383.541 315.219 383.721 315.152 383.84C315.099 383.947 314.986 384 314.813 384H314.494C314.015 384 313.57 383.914 313.158 383.741C312.746 383.555 312.406 383.209 312.141 382.704C311.848 383.209 311.496 383.555 311.083 383.741C310.684 383.914 310.272 384 309.847 384H309.328C309.155 384 309.042 383.947 308.989 383.84C308.923 383.734 308.889 383.568 308.889 383.342C308.889 383.102 308.923 382.923 308.989 382.803C309.042 382.684 309.155 382.624 309.328 382.624H309.847ZM318.112 382.624C318.285 382.624 318.398 382.684 318.451 382.803C318.518 382.91 318.551 383.076 318.551 383.302C318.551 383.541 318.518 383.721 318.451 383.84C318.398 383.947 318.285 384 318.112 384H314.821C314.648 384 314.535 383.947 314.482 383.84C314.415 383.734 314.382 383.568 314.382 383.342C314.382 383.102 314.415 382.923 314.482 382.803C314.535 382.684 314.648 382.624 314.821 382.624H318.112ZM321.404 382.624C321.577 382.624 321.69 382.684 321.743 382.803C321.809 382.91 321.843 383.076 321.843 383.302C321.843 383.541 321.809 383.721 321.743 383.84C321.69 383.947 321.577 384 321.404 384H318.113C317.94 384 317.827 383.947 317.774 383.84C317.707 383.734 317.674 383.568 317.674 383.342C317.674 383.102 317.707 382.923 317.774 382.803C317.827 382.684 317.94 382.624 318.113 382.624H321.404ZM323.2 382.624C323.718 382.624 324.131 382.484 324.436 382.205C324.756 381.926 324.915 381.54 324.915 381.048V378.296H326.212V381.048C326.212 381.992 325.946 382.723 325.414 383.242C324.895 383.747 324.184 384 323.28 384H321.405C321.232 384 321.119 383.947 321.066 383.84C320.999 383.734 320.966 383.568 320.966 383.342C320.966 383.102 320.999 382.923 321.066 382.803C321.119 382.684 321.232 382.624 321.405 382.624H323.2ZM323.998 387.77H322.322V386.314H323.998V387.77ZM331.355 384C331.009 384 330.677 383.953 330.358 383.86C330.039 383.754 329.753 383.581 329.5 383.342C329.261 383.102 329.068 382.79 328.922 382.404C328.775 382.005 328.702 381.513 328.702 380.928V371.634H329.999V380.689C329.999 381.247 330.118 381.713 330.358 382.085C330.61 382.444 331.016 382.624 331.574 382.624H331.914C332.206 382.624 332.352 382.85 332.352 383.302C332.352 383.767 332.206 384 331.914 384H331.355ZM333.718 382.624C334.237 382.624 334.649 382.484 334.955 382.205C335.274 381.926 335.433 381.54 335.433 381.048V378.296H336.73V381.048C336.73 381.992 336.464 382.723 335.932 383.242C335.413 383.747 334.702 384 333.798 384H331.923C331.75 384 331.637 383.947 331.584 383.84C331.517 383.734 331.484 383.568 331.484 383.342C331.484 383.102 331.517 382.923 331.584 382.803C331.637 382.684 331.75 382.624 331.923 382.624H333.718ZM336.929 375.742H335.334V374.326H336.929V375.742ZM334.396 375.742H332.801V374.326H334.396V375.742ZM344.473 383.242C344.193 383.016 343.967 382.77 343.795 382.504C343.622 382.225 343.482 381.952 343.376 381.686C343.269 381.407 343.196 381.141 343.156 380.888C343.116 380.623 343.096 380.39 343.096 380.19C343.096 379.698 343.176 379.24 343.336 378.814C343.509 378.389 343.741 378.016 344.034 377.697C344.34 377.378 344.705 377.132 345.131 376.959C345.556 376.773 346.022 376.68 346.527 376.68C346.992 376.68 347.438 376.753 347.863 376.899C348.289 377.046 348.754 377.285 349.26 377.617L348.701 378.714C348.276 378.475 347.89 378.309 347.544 378.216C347.212 378.123 346.873 378.076 346.527 378.076C346.208 378.076 345.915 378.136 345.649 378.256C345.384 378.375 345.151 378.535 344.951 378.734C344.765 378.92 344.619 379.147 344.513 379.412C344.419 379.665 344.373 379.931 344.373 380.21C344.373 380.516 344.426 380.815 344.533 381.108C344.639 381.387 344.779 381.64 344.951 381.866C345.138 382.092 345.35 382.278 345.59 382.424C345.842 382.557 346.102 382.624 346.368 382.624H349.798L349.678 384H346.328C345.822 384 345.37 384.086 344.971 384.259C344.586 384.445 344.253 384.685 343.974 384.977C343.708 385.27 343.502 385.602 343.356 385.975C343.209 386.347 343.136 386.726 343.136 387.112C343.136 387.617 343.203 388.069 343.336 388.468C343.469 388.867 343.681 389.199 343.974 389.465C344.267 389.744 344.646 389.957 345.111 390.103C345.576 390.25 346.141 390.323 346.806 390.323H350.377L350.277 391.679H346.727C345.809 391.679 345.038 391.559 344.413 391.32C343.801 391.094 343.303 390.775 342.917 390.363C342.545 389.964 342.272 389.492 342.099 388.947C341.94 388.415 341.86 387.836 341.86 387.211C341.86 386.374 342.073 385.596 342.498 384.878C342.937 384.173 343.595 383.628 344.473 383.242ZM352.602 371.634H353.899V384H352.602V371.634ZM358.209 387.471C358.794 387.471 359.306 387.377 359.745 387.191C360.197 387.005 360.576 386.753 360.882 386.433C361.187 386.114 361.42 385.742 361.58 385.316C361.739 384.904 361.832 384.465 361.859 384H359.864C359.186 384 358.628 383.927 358.189 383.781C357.75 383.634 357.404 383.422 357.152 383.142C356.899 382.863 356.72 382.531 356.613 382.145C356.52 381.746 356.474 381.301 356.474 380.809C356.474 380.303 356.547 379.825 356.693 379.373C356.839 378.92 357.052 378.522 357.331 378.176C357.61 377.83 357.956 377.558 358.368 377.358C358.794 377.145 359.279 377.039 359.824 377.039C360.263 377.039 360.682 377.112 361.081 377.258C361.48 377.405 361.832 377.637 362.138 377.956C362.444 378.262 362.683 378.668 362.856 379.173C363.042 379.665 363.135 380.264 363.135 380.968V382.624H365.05C365.21 382.624 365.316 382.684 365.369 382.803C365.436 382.91 365.469 383.076 365.469 383.302C365.469 383.541 365.436 383.721 365.369 383.84C365.316 383.947 365.21 384 365.05 384H363.096C363.069 384.652 362.936 385.27 362.697 385.855C362.471 386.44 362.151 386.952 361.739 387.391C361.327 387.83 360.835 388.175 360.263 388.428C359.691 388.694 359.047 388.827 358.329 388.827H356.214L356.095 387.471H358.209ZM357.71 380.729C357.71 381.061 357.743 381.347 357.81 381.587C357.89 381.826 358.016 382.025 358.189 382.185C358.375 382.331 358.621 382.444 358.927 382.524C359.233 382.591 359.618 382.624 360.084 382.624H361.879V381.128C361.879 380.144 361.686 379.439 361.3 379.014C360.915 378.588 360.383 378.375 359.705 378.375C359.067 378.375 358.575 378.588 358.229 379.014C357.883 379.439 357.71 380.011 357.71 380.729ZM368.346 382.624C368.519 382.624 368.632 382.684 368.685 382.803C368.752 382.91 368.785 383.076 368.785 383.302C368.785 383.541 368.752 383.721 368.685 383.84C368.632 383.947 368.519 384 368.346 384H365.055C364.883 384 364.769 383.947 364.716 383.84C364.65 383.734 364.617 383.568 364.617 383.342C364.617 383.102 364.65 382.923 364.716 382.803C364.769 382.684 364.883 382.624 365.055 382.624H368.346ZM371.638 382.624C371.811 382.624 371.924 382.684 371.977 382.803C372.044 382.91 372.077 383.076 372.077 383.302C372.077 383.541 372.044 383.721 371.977 383.84C371.924 383.947 371.811 384 371.638 384H368.347C368.174 384 368.061 383.947 368.008 383.84C367.942 383.734 367.908 383.568 367.908 383.342C367.908 383.102 367.942 382.923 368.008 382.803C368.061 382.684 368.174 382.624 368.347 382.624H371.638ZM373.434 382.624C373.953 382.624 374.365 382.484 374.671 382.205C374.99 381.926 375.149 381.54 375.149 381.048V378.296H376.446V381.048C376.446 381.992 376.18 382.723 375.648 383.242C375.13 383.747 374.418 384 373.514 384H371.639C371.466 384 371.353 383.947 371.3 383.84C371.233 383.734 371.2 383.568 371.2 383.342C371.2 383.102 371.233 382.923 371.3 382.803C371.353 382.684 371.466 382.624 371.639 382.624H373.434ZM375.907 375.742H374.232V374.286H375.907V375.742ZM378.937 371.634H380.233V384H378.937V371.634ZM395.959 382.624C396.517 382.624 396.943 382.484 397.235 382.205C397.528 381.926 397.674 381.54 397.674 381.048V378.296H398.971V381.048C398.971 381.341 399.017 381.587 399.11 381.786C399.217 381.985 399.35 382.152 399.509 382.285C399.669 382.404 399.848 382.491 400.048 382.544C400.26 382.597 400.473 382.624 400.686 382.624H401.005C401.178 382.624 401.291 382.684 401.344 382.803C401.411 382.91 401.444 383.076 401.444 383.302C401.444 383.541 401.411 383.721 401.344 383.84C401.291 383.947 401.178 384 401.005 384H400.646C400.167 384 399.715 383.914 399.29 383.741C398.877 383.555 398.538 383.209 398.272 382.704C397.98 383.209 397.628 383.555 397.215 383.741C396.816 383.914 396.398 384 395.959 384H388.878C388.333 384 387.861 383.92 387.462 383.761C387.076 383.588 386.757 383.362 386.504 383.082C386.265 382.803 386.086 382.477 385.966 382.105C385.86 381.733 385.806 381.341 385.806 380.928V378.256H387.083V380.629C387.083 381.228 387.236 381.713 387.542 382.085C387.847 382.444 388.386 382.624 389.157 382.624H395.959ZM394.443 376.54H392.847V375.124H394.443V376.54ZM391.91 376.54H390.314V375.124H391.91V376.54ZM404.303 382.624C404.476 382.624 404.589 382.684 404.642 382.803C404.709 382.91 404.742 383.076 404.742 383.302C404.742 383.541 404.709 383.721 404.642 383.84C404.589 383.947 404.476 384 404.303 384H401.012C400.839 384 400.726 383.947 400.673 383.84C400.607 383.734 400.573 383.568 400.573 383.342C400.573 383.102 400.607 382.923 400.673 382.803C400.726 382.684 400.839 382.624 401.012 382.624H404.303ZM407.595 382.624C407.768 382.624 407.881 382.684 407.934 382.803C408.001 382.91 408.034 383.076 408.034 383.302C408.034 383.541 408.001 383.721 407.934 383.84C407.881 383.947 407.768 384 407.595 384H404.304C404.131 384 404.018 383.947 403.965 383.84C403.898 383.734 403.865 383.568 403.865 383.342C403.865 383.102 403.898 382.923 403.965 382.803C404.018 382.684 404.131 382.624 404.304 382.624H407.595ZM410.887 382.624C411.06 382.624 411.173 382.684 411.226 382.803C411.292 382.91 411.326 383.076 411.326 383.302C411.326 383.541 411.292 383.721 411.226 383.84C411.173 383.947 411.06 384 410.887 384H407.596C407.423 384 407.31 383.947 407.257 383.84C407.19 383.734 407.157 383.568 407.157 383.342C407.157 383.102 407.19 382.923 407.257 382.803C407.31 382.684 407.423 382.624 407.596 382.624H410.887ZM416.652 382.823C416.306 383.023 415.974 383.202 415.655 383.362C415.336 383.508 414.99 383.628 414.617 383.721C414.245 383.814 413.833 383.887 413.381 383.94C412.942 383.98 412.437 384 411.865 384H410.888C410.715 384 410.602 383.947 410.549 383.84C410.482 383.734 410.449 383.568 410.449 383.342C410.449 383.102 410.482 382.923 410.549 382.803C410.602 382.684 410.715 382.624 410.888 382.624H411.885C412.404 382.624 412.862 382.61 413.261 382.584C413.66 382.544 414.026 382.491 414.358 382.424C414.691 382.345 415.003 382.245 415.296 382.125C415.588 382.005 415.887 381.853 416.193 381.666L419.564 379.712C419.458 379.432 419.345 379.18 419.225 378.954C419.105 378.714 418.952 378.515 418.766 378.355C418.593 378.196 418.374 378.076 418.108 377.996C417.842 377.903 417.51 377.857 417.111 377.857H412.643L412.763 376.48H417.29C417.636 376.48 417.988 376.52 418.347 376.6C418.72 376.68 419.065 376.853 419.385 377.119C419.717 377.371 420.023 377.75 420.302 378.256C420.595 378.761 420.834 379.432 421.02 380.27L416.652 382.823ZM416.732 374.227H415.056V372.771H416.732V374.227ZM426 384C425.654 384 425.322 383.953 425.002 383.86C424.683 383.754 424.397 383.581 424.145 383.342C423.905 383.102 423.713 382.79 423.566 382.404C423.42 382.005 423.347 381.513 423.347 380.928V371.634H424.643V380.689C424.643 381.247 424.763 381.713 425.002 382.085C425.255 382.444 425.661 382.624 426.219 382.624H426.558C426.851 382.624 426.997 382.85 426.997 383.302C426.997 383.767 426.851 384 426.558 384H426ZM427.286 382.624C427.844 382.624 428.276 382.484 428.582 382.205C428.901 381.926 429.061 381.54 429.061 381.048V378.296H430.357V381.048C430.357 381.341 430.404 381.587 430.497 381.786C430.603 381.985 430.736 382.152 430.896 382.285C431.069 382.404 431.255 382.491 431.454 382.544C431.667 382.597 431.88 382.624 432.093 382.624C432.718 382.624 433.19 382.484 433.509 382.205C433.841 381.926 434.007 381.54 434.007 381.048V378.296H435.304V381.048C435.304 381.633 435.463 382.045 435.783 382.285C436.115 382.511 436.487 382.624 436.899 382.624C437.405 382.624 437.804 382.484 438.096 382.205C438.402 381.926 438.555 381.54 438.555 381.048V378.296H439.851V381.048C439.851 381.992 439.586 382.723 439.054 383.242C438.535 383.747 437.83 384 436.939 384C436.461 384 436.015 383.914 435.603 383.741C435.191 383.555 434.852 383.209 434.586 382.704C434.293 383.209 433.921 383.555 433.469 383.741C433.03 383.914 432.571 384 432.093 384C431.574 384 431.102 383.914 430.676 383.741C430.251 383.555 429.905 383.209 429.639 382.704C429.347 383.209 428.988 383.555 428.562 383.741C428.137 383.914 427.685 384 427.206 384H426.568C426.395 384 426.282 383.947 426.229 383.84C426.162 383.734 426.129 383.568 426.129 383.342C426.129 383.102 426.162 382.923 426.229 382.803C426.282 382.684 426.395 382.624 426.568 382.624H427.286Z" fill="#C0A660"/>
<g filter="url(#filter2_bd_64_1986)">
<rect x="426" y="265" width="150" height="65" rx="32.5" fill="white" fill-opacity="0.26" shape-rendering="crispEdges"/>
</g>
<mask id="mask1_64_1986" style="mask-type:alpha" maskUnits="userSpaceOnUse" x="426" y="265" width="150" height="65">
<rect x="426" y="265" width="150" height="65" rx="32.5" fill="white" fill-opacity="0.26"/>
</mask>
<g mask="url(#mask1_64_1986)">
<g filter="url(#filter3_f_64_1986)">
<circle cx="447" cy="290" r="56" fill="#058B7C"/>
</g>
<g filter="url(#filter4_f_64_1986)">
<circle cx="574" cy="303" r="56" fill="#866C25"/>
</g>
</g>
<path d="M476.608 297.616C478.101 294.971 479.531 293.019 480.896 291.76C482.283 290.48 483.68 289.84 485.088 289.84C485.963 289.84 486.741 290 487.424 290.32C488.128 290.619 488.715 291.045 489.184 291.6C489.675 292.155 490.048 292.816 490.304 293.584C490.56 294.331 490.688 295.141 490.688 296.016C490.688 296.443 490.656 296.859 490.592 297.264C490.955 297.435 491.307 297.541 491.648 297.584C492.011 297.605 492.341 297.616 492.64 297.616H492.992C493.461 297.616 493.696 298.32 493.696 299.728C493.696 301.243 493.461 302 492.992 302H492.64C492.384 302 492.107 302 491.808 302C491.531 301.979 491.232 301.925 490.912 301.84C490.592 301.755 490.261 301.616 489.92 301.424C489.579 301.232 489.216 300.965 488.832 300.624C488.363 301.051 487.797 301.392 487.136 301.648C486.496 301.883 485.749 302 484.896 302H477.152C476.619 302 476.085 301.925 475.552 301.776C475.04 301.605 474.635 301.328 474.336 300.944V301.488C474.336 302.576 474.155 303.621 473.792 304.624C473.429 305.627 472.907 306.501 472.224 307.248C471.541 308.016 470.709 308.624 469.728 309.072C468.747 309.52 467.637 309.744 466.4 309.744H464.288C461.899 309.744 460.043 309.008 458.72 307.536C457.397 306.064 456.736 304.048 456.736 301.488V295.664H460.768V301.296C460.768 301.915 460.832 302.469 460.96 302.96C461.088 303.472 461.301 303.899 461.6 304.24C461.92 304.603 462.336 304.88 462.848 305.072C463.381 305.264 464.043 305.36 464.832 305.36H466.24C467.072 305.36 467.755 305.243 468.288 305.008C468.843 304.795 469.28 304.485 469.6 304.08C469.92 303.696 470.144 303.248 470.272 302.736C470.4 302.224 470.464 301.68 470.464 301.104V292.496H474.496V294.96C474.496 295.728 474.624 296.368 474.88 296.88C475.157 297.371 475.733 297.616 476.608 297.616ZM486.656 296.016C486.656 295.845 486.624 295.664 486.56 295.472C486.496 295.259 486.379 295.067 486.208 294.896C486.059 294.704 485.856 294.555 485.6 294.448C485.365 294.32 485.077 294.256 484.736 294.256C484.203 294.256 483.616 294.501 482.976 294.992C482.336 295.483 481.568 296.357 480.672 297.616H485.088C485.621 297.616 486.016 297.467 486.272 297.168C486.528 296.848 486.656 296.464 486.656 296.016ZM502.136 297.616C503.63 294.971 505.059 293.019 506.424 291.76C507.79 290.48 509.176 289.84 510.584 289.84C511.459 289.84 512.248 290 512.952 290.32C513.656 290.619 514.243 291.045 514.712 291.6C515.203 292.155 515.576 292.816 515.832 293.584C516.088 294.331 516.216 295.141 516.216 296.016C516.216 296.443 516.184 296.859 516.12 297.264C516.483 297.435 516.835 297.541 517.176 297.584C517.539 297.605 517.87 297.616 518.168 297.616H518.52C518.99 297.616 519.224 298.32 519.224 299.728C519.224 301.243 518.99 302 518.52 302H518.168C517.912 302 517.635 302 517.336 302C517.059 301.979 516.76 301.925 516.44 301.84C516.12 301.755 515.79 301.616 515.448 301.424C515.107 301.232 514.744 300.965 514.36 300.624C513.87 301.051 513.294 301.392 512.632 301.648C511.992 301.883 511.246 302 510.392 302H501.944C501.155 302 500.419 301.883 499.736 301.648C499.054 301.392 498.446 300.859 497.912 300.048C497.379 300.859 496.803 301.392 496.184 301.648C495.566 301.883 494.904 302 494.2 302H492.984C492.707 302 492.526 301.829 492.44 301.488C492.334 301.125 492.28 300.592 492.28 299.888C492.28 299.077 492.334 298.501 492.44 298.16C492.526 297.797 492.707 297.616 492.984 297.616H494.2C495.395 297.616 495.992 297.019 495.992 295.824V292.496H500.024V295.824C500.024 296.443 500.216 296.901 500.6 297.2C501.006 297.477 501.518 297.616 502.136 297.616ZM512.152 296.016C512.152 295.845 512.12 295.664 512.056 295.472C511.992 295.259 511.875 295.067 511.704 294.896C511.555 294.704 511.352 294.555 511.096 294.448C510.862 294.32 510.574 294.256 510.232 294.256C509.699 294.256 509.112 294.512 508.472 295.024C507.832 295.515 507.075 296.379 506.2 297.616H510.584C511.118 297.616 511.512 297.467 511.768 297.168C512.024 296.848 512.152 296.464 512.152 296.016ZM532.724 297.296C532.98 297.467 533.268 297.563 533.588 297.584C533.929 297.605 534.302 297.616 534.708 297.616H536.276C536.553 297.616 536.734 297.787 536.82 298.128C536.926 298.469 536.98 299.003 536.98 299.728C536.98 300.517 536.926 301.093 536.82 301.456C536.734 301.819 536.553 302 536.276 302H534.548C533.822 302 533.204 301.925 532.692 301.776C532.18 301.627 531.742 301.413 531.38 301.136C531.017 300.859 530.718 300.539 530.484 300.176C530.249 299.792 530.057 299.376 529.908 298.928L527.668 300.24C527.049 300.603 526.452 300.901 525.876 301.136C525.3 301.349 524.692 301.52 524.052 301.648C523.412 301.776 522.718 301.872 521.972 301.936C521.225 301.979 520.372 302 519.412 302H518.516C518.238 302 518.057 301.829 517.972 301.488C517.865 301.125 517.812 300.592 517.812 299.888C517.812 299.077 517.865 298.501 517.972 298.16C518.057 297.797 518.238 297.616 518.516 297.616H519.572C520.361 297.616 521.065 297.616 521.684 297.616C522.324 297.595 522.9 297.552 523.412 297.488C523.945 297.424 524.436 297.317 524.884 297.168C525.353 297.019 525.822 296.816 526.292 296.56L529.428 294.768C529.3 294.597 529.182 294.459 529.076 294.352C528.969 294.224 528.841 294.128 528.692 294.064C528.542 294 528.361 293.957 528.148 293.936C527.934 293.915 527.657 293.904 527.316 293.904H520.788L520.98 289.488H528.02C528.638 289.488 529.236 289.584 529.812 289.776C530.409 289.968 530.964 290.331 531.476 290.864C531.988 291.376 532.457 292.091 532.884 293.008C533.332 293.925 533.705 295.109 534.004 296.56L532.724 297.296ZM528.564 286.32H524.34V282.448H528.564V286.32ZM539.274 297.616C539.892 297.616 540.33 297.477 540.586 297.2C540.863 296.901 541.002 296.443 541.002 295.824V292.496H545.066V296.176C545.066 298.117 544.596 299.579 543.658 300.56C542.74 301.52 541.396 302 539.626 302H536.266C535.988 302 535.807 301.829 535.722 301.488C535.615 301.125 535.562 300.592 535.562 299.888C535.562 299.077 535.615 298.501 535.722 298.16C535.807 297.797 535.988 297.616 536.266 297.616H539.274ZM545.034 288.976H541.162V285.264H545.034V288.976ZM540.106 288.976H536.234V285.264H540.106V288.976Z" fill="#038575"/>
<g filter="url(#filter5_bd_64_1986)">
<rect x="9" y="183" width="150" height="65" rx="32.5" fill="white" fill-opacity="0.26" shape-rendering="crispEdges"/>
<rect x="9" y="183" width="150" height="65" rx="32.5" fill="url(#paint0_linear_64_1986)" fill-opacity="0.2" shape-rendering="crispEdges"/>
</g>
<path d="M63.3075 220C62.9448 220 62.5715 219.947 62.1875 219.84C61.8248 219.712 61.4942 219.467 61.1955 219.104V219.296C61.1955 220.491 61.0142 221.6 60.6515 222.624C60.2888 223.648 59.7662 224.533 59.0835 225.28C58.4008 226.048 57.5688 226.645 56.5875 227.072C55.6062 227.52 54.4968 227.744 53.2595 227.744H51.1475C48.7582 227.744 46.9022 227.008 45.5795 225.536C44.2568 224.064 43.5955 222.048 43.5955 219.488V213.664H47.6275V219.296C47.6275 219.915 47.6915 220.469 47.8195 220.96C47.9475 221.472 48.1608 221.899 48.4595 222.24C48.7795 222.603 49.1955 222.88 49.7075 223.072C50.2408 223.264 50.9022 223.36 51.6915 223.36H53.0995C53.9315 223.36 54.6142 223.243 55.1475 223.008C55.7022 222.795 56.1395 222.485 56.4595 222.08C56.7795 221.696 57.0035 221.248 57.1315 220.736C57.2595 220.224 57.3235 219.68 57.3235 219.104V210.496H61.3555V213.824C61.3555 214.443 61.5475 214.901 61.9315 215.2C62.3155 215.477 62.7742 215.616 63.3075 215.616H63.6595C64.1288 215.616 64.3635 216.32 64.3635 217.728C64.3635 219.243 64.1288 220 63.6595 220H63.3075ZM53.9635 210.144H49.7395V206.272H53.9635V210.144ZM65.7682 215.616C66.3869 215.616 66.8349 215.477 67.1123 215.2C67.3896 214.901 67.5283 214.443 67.5283 213.824V210.496H71.5923V213.824C71.5923 214.443 71.7843 214.901 72.1683 215.2C72.5523 215.477 73.0536 215.616 73.6723 215.616H74.3763C74.8669 215.616 75.1123 216.32 75.1123 217.728C75.1123 219.243 74.8669 220 74.3763 220H73.5123C72.7016 220 71.9549 219.883 71.2723 219.648C70.6109 219.392 70.0136 218.859 69.4803 218.048C68.9256 218.859 68.3389 219.392 67.7203 219.648C67.1229 219.883 66.4723 220 65.7682 220H63.6562C63.3789 220 63.1976 219.829 63.1122 219.488C63.0056 219.125 62.9522 218.592 62.9522 217.888C62.9522 217.077 63.0056 216.501 63.1122 216.16C63.1976 215.797 63.3789 215.616 63.6562 215.616H65.7682ZM73.4803 227.2H69.6083V223.488H73.4803V227.2ZM68.5523 227.2H64.6803V223.488H68.5523V227.2ZM74.535 215.616C75.175 215.616 75.687 215.509 76.071 215.296C76.455 215.061 76.647 214.635 76.647 214.016V213.664C76.647 212.832 76.775 212.064 77.031 211.36C77.287 210.635 77.6497 210.016 78.119 209.504C78.5883 208.992 79.1643 208.587 79.847 208.288C80.5297 207.989 81.287 207.84 82.119 207.84C82.9937 207.84 83.7723 207.989 84.455 208.288C85.1377 208.587 85.703 208.992 86.151 209.504C86.6203 210.016 86.9723 210.635 87.207 211.36C87.463 212.064 87.591 212.832 87.591 213.664V214.016C87.591 214.336 87.655 214.603 87.783 214.816C87.911 215.008 88.071 215.168 88.263 215.296C88.455 215.403 88.6577 215.488 88.871 215.552C89.1057 215.595 89.319 215.616 89.511 215.616H89.863C90.1403 215.616 90.3217 215.787 90.407 216.128C90.5137 216.469 90.567 217.003 90.567 217.728C90.567 218.517 90.5137 219.093 90.407 219.456C90.3217 219.819 90.1403 220 89.863 220H89.511C88.8923 220 88.263 219.872 87.623 219.616C87.0043 219.339 86.439 218.816 85.927 218.048C85.3297 218.859 84.6897 219.392 84.007 219.648C83.3243 219.883 82.6417 220 81.959 220C81.127 220 80.3483 219.829 79.623 219.488C78.8977 219.147 78.3537 218.667 77.991 218.048C77.5857 218.773 77.063 219.285 76.423 219.584C75.783 219.861 75.1537 220 74.535 220H74.375C74.0977 220 73.9163 219.829 73.831 219.488C73.7243 219.125 73.671 218.592 73.671 217.888C73.671 217.077 73.7243 216.501 73.831 216.16C73.9163 215.797 74.0977 215.616 74.375 215.616H74.535ZM83.687 214.016C83.687 213.568 83.5803 213.163 83.367 212.8C83.1537 212.437 82.7377 212.256 82.119 212.256C81.5003 212.256 81.0843 212.437 80.871 212.8C80.6577 213.163 80.551 213.568 80.551 214.016C80.551 215.083 81.0737 215.616 82.119 215.616C83.1643 215.616 83.687 215.083 83.687 214.016ZM99.027 215.616C100.52 212.971 101.95 211.019 103.315 209.76C104.68 208.48 106.067 207.84 107.475 207.84C108.35 207.84 109.139 208 109.843 208.32C110.547 208.619 111.134 209.045 111.603 209.6C112.094 210.155 112.467 210.816 112.723 211.584C112.979 212.331 113.107 213.141 113.107 214.016C113.107 214.443 113.075 214.859 113.011 215.264C113.374 215.435 113.726 215.541 114.067 215.584C114.43 215.605 114.76 215.616 115.059 215.616H115.411C115.88 215.616 116.115 216.32 116.115 217.728C116.115 219.243 115.88 220 115.411 220H115.059C114.803 220 114.526 220 114.227 220C113.95 219.979 113.651 219.925 113.331 219.84C113.011 219.755 112.68 219.616 112.339 219.424C111.998 219.232 111.635 218.965 111.251 218.624C110.76 219.051 110.184 219.392 109.523 219.648C108.883 219.883 108.136 220 107.283 220H98.835C98.0457 220 97.3097 219.883 96.627 219.648C95.9443 219.392 95.3363 218.859 94.803 218.048C94.2697 218.859 93.6937 219.392 93.075 219.648C92.4563 219.883 91.795 220 91.091 220H89.875C89.5977 220 89.4163 219.829 89.331 219.488C89.2243 219.125 89.171 218.592 89.171 217.888C89.171 217.077 89.2243 216.501 89.331 216.16C89.4163 215.797 89.5977 215.616 89.875 215.616H91.091C92.2857 215.616 92.883 215.019 92.883 213.824V210.496H96.915V213.824C96.915 214.443 97.107 214.901 97.491 215.2C97.8963 215.477 98.4083 215.616 99.027 215.616ZM109.043 214.016C109.043 213.845 109.011 213.664 108.947 213.472C108.883 213.259 108.766 213.067 108.595 212.896C108.446 212.704 108.243 212.555 107.987 212.448C107.752 212.32 107.464 212.256 107.123 212.256C106.59 212.256 106.003 212.512 105.363 213.024C104.723 213.515 103.966 214.379 103.091 215.616H107.475C108.008 215.616 108.403 215.467 108.659 215.168C108.915 214.848 109.043 214.464 109.043 214.016ZM109.043 204.512H104.819V200.64H109.043V204.512ZM118.414 215.616C119.033 215.616 119.47 215.477 119.726 215.2C120.004 214.901 120.142 214.443 120.142 213.824V210.496H124.206V214.176C124.206 216.117 123.737 217.579 122.798 218.56C121.881 219.52 120.537 220 118.766 220H115.406C115.129 220 114.948 219.829 114.862 219.488C114.756 219.125 114.702 218.592 114.702 217.888C114.702 217.077 114.756 216.501 114.862 216.16C114.948 215.797 115.129 215.616 115.406 215.616H118.414ZM124.174 206.976H120.302V203.264H124.174V206.976ZM119.246 206.976H115.374V203.264H119.246V206.976Z" fill="#038575"/>
<g filter="url(#filter6_bd_64_1986)">
<rect x="337" y="41" width="150" height="65" rx="32.5" fill="white" fill-opacity="0.26" shape-rendering="crispEdges"/>
<rect x="337" y="41" width="150" height="65" rx="32.5" fill="url(#paint1_linear_64_1986)" fill-opacity="0.2" shape-rendering="crispEdges"/>
</g>
<path d="M386.149 72.72C386.789 72.72 387.247 72.5813 387.525 72.304C387.802 72.0053 387.941 71.6 387.941 71.088V69.2H386.469C385.722 69.2 385.221 69.392 384.965 69.776C384.73 70.1387 384.613 70.608 384.613 71.184C384.613 71.6747 384.719 72.0587 384.933 72.336C385.146 72.592 385.551 72.72 386.149 72.72ZM391.845 72.016C391.845 73.0827 392.314 73.616 393.253 73.616H394.117C394.394 73.616 394.575 73.7867 394.661 74.128C394.767 74.4693 394.821 75.0027 394.821 75.728C394.821 76.5173 394.767 77.0933 394.661 77.456C394.575 77.8187 394.394 78 394.117 78H393.253C392.101 78 391.194 77.8187 390.533 77.456C389.871 77.0933 389.359 76.5173 388.997 75.728C388.463 76.2613 387.866 76.6027 387.205 76.752C386.565 76.88 385.935 76.944 385.317 76.944C383.823 76.944 382.682 76.4747 381.893 75.536C381.125 74.5973 380.741 73.2427 380.741 71.472C380.741 70.6827 380.847 69.9147 381.061 69.168C381.295 68.4 381.626 67.7173 382.053 67.12C382.501 66.5227 383.055 66.0427 383.717 65.68C384.378 65.3173 385.146 65.136 386.021 65.136H387.941V63.024H391.845V72.016ZM394.109 78C393.832 78 393.651 77.8293 393.565 77.488C393.459 77.1253 393.405 76.592 393.405 75.888C393.405 75.0773 393.459 74.5013 393.565 74.16C393.651 73.7973 393.832 73.616 394.109 73.616H401.501C402.675 73.616 403.261 73.0187 403.261 71.824V68.496H407.325V72.176C407.325 74.1173 406.856 75.5787 405.917 76.56C404.979 77.52 403.624 78 401.853 78H394.109ZM400.957 85.36H396.733V81.488H400.957V85.36ZM415.418 71.824C415.418 72.4427 415.599 72.9013 415.962 73.2C416.346 73.4773 416.805 73.616 417.338 73.616H417.69C418.159 73.616 418.394 74.32 418.394 75.728C418.394 77.2427 418.159 78 417.69 78H417.338C416.975 78 416.602 77.9467 416.218 77.84C415.855 77.712 415.525 77.4667 415.226 77.104V77.488C415.226 78.576 415.034 79.6213 414.65 80.624C414.287 81.6267 413.765 82.5013 413.082 83.248C412.421 84.016 411.621 84.624 410.682 85.072C409.765 85.52 408.751 85.744 407.642 85.744H406.842L406.522 81.36H406.938C407.727 81.36 408.399 81.2427 408.954 81.008C409.53 80.7947 409.989 80.5067 410.33 80.144C410.693 79.7813 410.949 79.3653 411.098 78.896C411.269 78.448 411.354 77.9787 411.354 77.488V68.496H415.418V71.824ZM431.911 73.296C432.167 73.4667 432.455 73.5627 432.775 73.584C433.116 73.6053 433.49 73.616 433.895 73.616H435.463C435.74 73.616 435.922 73.7867 436.007 74.128C436.114 74.4693 436.167 75.0027 436.167 75.728C436.167 76.5173 436.114 77.0933 436.007 77.456C435.922 77.8187 435.74 78 435.463 78H433.735C433.01 78 432.391 77.9253 431.879 77.776C431.367 77.6267 430.93 77.4133 430.567 77.136C430.204 76.8587 429.906 76.5387 429.671 76.176C429.436 75.792 429.244 75.376 429.095 74.928L426.855 76.24C426.236 76.6027 425.639 76.9013 425.063 77.136C424.487 77.3493 423.879 77.52 423.239 77.648C422.599 77.776 421.906 77.872 421.159 77.936C420.412 77.9787 419.559 78 418.599 78H417.703C417.426 78 417.244 77.8293 417.159 77.488C417.052 77.1253 416.999 76.592 416.999 75.888C416.999 75.0773 417.052 74.5013 417.159 74.16C417.244 73.7973 417.426 73.616 417.703 73.616H418.759C419.548 73.616 420.252 73.616 420.871 73.616C421.511 73.5947 422.087 73.552 422.599 73.488C423.132 73.424 423.623 73.3173 424.071 73.168C424.54 73.0187 425.01 72.816 425.479 72.56L428.615 70.768C428.487 70.5973 428.37 70.4587 428.263 70.352C428.156 70.224 428.028 70.128 427.879 70.064C427.73 70 427.548 69.9573 427.335 69.936C427.122 69.9147 426.844 69.904 426.503 69.904H419.975L420.167 65.488H427.207C427.826 65.488 428.423 65.584 428.999 65.776C429.596 65.968 430.151 66.3307 430.663 66.864C431.175 67.376 431.644 68.0907 432.071 69.008C432.519 69.9253 432.892 71.1093 433.191 72.56L431.911 73.296ZM427.751 85.36H423.527V81.488H427.751V85.36ZM438.461 73.616C439.08 73.616 439.517 73.4773 439.773 73.2C440.05 72.9013 440.189 72.4427 440.189 71.824V68.496H444.253V72.176C444.253 74.1173 443.784 75.5787 442.845 76.56C441.928 77.52 440.584 78 438.813 78H435.453C435.176 78 434.994 77.8293 434.909 77.488C434.802 77.1253 434.749 76.592 434.749 75.888C434.749 75.0773 434.802 74.5013 434.909 74.16C434.994 73.7973 435.176 73.616 435.453 73.616H438.461ZM444.221 64.976H440.349V61.264H444.221V64.976ZM439.293 64.976H435.421V61.264H439.293V64.976Z" fill="#038575"/>
<g filter="url(#filter7_df_64_1986)">
<circle cx="560" cy="121" r="36" fill="#00C1AA"/>
</g>
<g filter="url(#filter8_df_64_1986)">
<circle cx="596" cy="218" r="19" fill="#C0A660"/>
</g>
<defs>
<filter id="filter0_d_64_1986" x="14" y="0" width="454.834" height="454.835" filterUnits="userSpaceOnUse" color-interpolation-filters="sRGB">
<feFlood flood-opacity="0" result="BackgroundImageFix"/>
<feColorMatrix in="SourceAlpha" type="matrix" values="0 0 0 0 0 0 0 0 0 0 0 0 0 0 0 0 0 0 127 0" result="hardAlpha"/>
<feOffset dx="-3" dy="4"/>
<feGaussianBlur stdDeviation="18"/>
<feComposite in2="hardAlpha" operator="out"/>
<feColorMatrix type="matrix" values="0 0 0 0 0.0196078 0 0 0 0 0.545098 0 0 0 0 0.486274 0 0 0 0.4 0"/>
<feBlend mode="normal" in2="BackgroundImageFix" result="effect1_dropShadow_64_1986"/>
<feBlend mode="normal" in="SourceGraphic" in2="effect1_dropShadow_64_1986" result="shape"/>
</filter>
<filter id="filter1_di_64_1986" x="87" y="63.8433" width="472.834" height="472.835" filterUnits="userSpaceOnUse" color-interpolation-filters="sRGB">
<feFlood flood-opacity="0" result="BackgroundImageFix"/>
<feColorMatrix in="SourceAlpha" type="matrix" values="0 0 0 0 0 0 0 0 0 0 0 0 0 0 0 0 0 0 127 0" result="hardAlpha"/>
<feOffset dx="12" dy="24"/>
<feGaussianBlur stdDeviation="22.5"/>
<feComposite in2="hardAlpha" operator="out"/>
<feColorMatrix type="matrix" values="0 0 0 0 0.0427735 0 0 0 0 0.427734 0 0 0 0 0.381858 0 0 0 0.3 0"/>
<feBlend mode="normal" in2="BackgroundImageFix" result="effect1_dropShadow_64_1986"/>
<feBlend mode="normal" in="SourceGraphic" in2="effect1_dropShadow_64_1986" result="shape"/>
<feColorMatrix in="SourceAlpha" type="matrix" values="0 0 0 0 0 0 0 0 0 0 0 0 0 0 0 0 0 0 127 0" result="hardAlpha"/>
<feOffset dx="-2" dy="-4"/>
<feGaussianBlur stdDeviation="3.5"/>
<feComposite in2="hardAlpha" operator="arithmetic" k2="-1" k3="1"/>
<feColorMatrix type="matrix" values="0 0 0 0 0.0132813 0 0 0 0 0.2125 0 0 0 0 0.188759 0 0 0 0.38 0"/>
<feBlend mode="normal" in2="shape" result="effect2_innerShadow_64_1986"/>
</filter>
<filter id="filter2_bd_64_1986" x="411" y="250" width="180" height="95" filterUnits="userSpaceOnUse" color-interpolation-filters="sRGB">
<feFlood flood-opacity="0" result="BackgroundImageFix"/>
<feGaussianBlur in="BackgroundImage" stdDeviation="7.5"/>
<feComposite in2="SourceAlpha" operator="in" result="effect1_backgroundBlur_64_1986"/>
<feColorMatrix in="SourceAlpha" type="matrix" values="0 0 0 0 0 0 0 0 0 0 0 0 0 0 0 0 0 0 127 0" result="hardAlpha"/>
<feOffset dy="4"/>
<feGaussianBlur stdDeviation="4.5"/>
<feComposite in2="hardAlpha" operator="out"/>
<feColorMatrix type="matrix" values="0 0 0 0 0 0 0 0 0 0 0 0 0 0 0 0 0 0 0.11 0"/>
<feBlend mode="normal" in2="effect1_backgroundBlur_64_1986" result="effect2_dropShadow_64_1986"/>
<feBlend mode="normal" in="SourceGraphic" in2="effect2_dropShadow_64_1986" result="shape"/>
</filter>
<filter id="filter3_f_64_1986" x="338" y="181" width="218" height="218" filterUnits="userSpaceOnUse" color-interpolation-filters="sRGB">
<feFlood flood-opacity="0" result="BackgroundImageFix"/>
<feBlend mode="normal" in="SourceGraphic" in2="BackgroundImageFix" result="shape"/>
<feGaussianBlur stdDeviation="26.5" result="effect1_foregroundBlur_64_1986"/>
</filter>
<filter id="filter4_f_64_1986" x="417" y="146" width="314" height="314" filterUnits="userSpaceOnUse" color-interpolation-filters="sRGB">
<feFlood flood-opacity="0" result="BackgroundImageFix"/>
<feBlend mode="normal" in="SourceGraphic" in2="BackgroundImageFix" result="shape"/>
<feGaussianBlur stdDeviation="50.5" result="effect1_foregroundBlur_64_1986"/>
</filter>
<filter id="filter5_bd_64_1986" x="-6" y="168" width="180" height="95" filterUnits="userSpaceOnUse" color-interpolation-filters="sRGB">
<feFlood flood-opacity="0" result="BackgroundImageFix"/>
<feGaussianBlur in="BackgroundImage" stdDeviation="7.5"/>
<feComposite in2="SourceAlpha" operator="in" result="effect1_backgroundBlur_64_1986"/>
<feColorMatrix in="SourceAlpha" type="matrix" values="0 0 0 0 0 0 0 0 0 0 0 0 0 0 0 0 0 0 127 0" result="hardAlpha"/>
<feOffset dy="4"/>
<feGaussianBlur stdDeviation="4.5"/>
<feComposite in2="hardAlpha" operator="out"/>
<feColorMatrix type="matrix" values="0 0 0 0 0 0 0 0 0 0 0 0 0 0 0 0 0 0 0.11 0"/>
<feBlend mode="normal" in2="effect1_backgroundBlur_64_1986" result="effect2_dropShadow_64_1986"/>
<feBlend mode="normal" in="SourceGraphic" in2="effect2_dropShadow_64_1986" result="shape"/>
</filter>
<filter id="filter6_bd_64_1986" x="322" y="26" width="180" height="95" filterUnits="userSpaceOnUse" color-interpolation-filters="sRGB">
<feFlood flood-opacity="0" result="BackgroundImageFix"/>
<feGaussianBlur in="BackgroundImage" stdDeviation="7.5"/>
<feComposite in2="SourceAlpha" operator="in" result="effect1_backgroundBlur_64_1986"/>
<feColorMatrix in="SourceAlpha" type="matrix" values="0 0 0 0 0 0 0 0 0 0 0 0 0 0 0 0 0 0 127 0" result="hardAlpha"/>
<feOffset dy="4"/>
<feGaussianBlur stdDeviation="4.5"/>
<feComposite in2="hardAlpha" operator="out"/>
<feColorMatrix type="matrix" values="0 0 0 0 0 0 0 0 0 0 0 0 0 0 0 0 0 0 0.11 0"/>
<feBlend mode="normal" in2="effect1_backgroundBlur_64_1986" result="effect2_dropShadow_64_1986"/>
<feBlend mode="normal" in="SourceGraphic" in2="effect2_dropShadow_64_1986" result="shape"/>
</filter>
<filter id="filter7_df_64_1986" x="446" y="11" width="228" height="228" filterUnits="userSpaceOnUse" color-interpolation-filters="sRGB">
<feFlood flood-opacity="0" result="BackgroundImageFix"/>
<feColorMatrix in="SourceAlpha" type="matrix" values="0 0 0 0 0 0 0 0 0 0 0 0 0 0 0 0 0 0 127 0" result="hardAlpha"/>
<feOffset dy="4"/>
<feGaussianBlur stdDeviation="39"/>
<feComposite in2="hardAlpha" operator="out"/>
<feColorMatrix type="matrix" values="0 0 0 0 0.0196078 0 0 0 0 0.545098 0 0 0 0 0.486274 0 0 0 0.48 0"/>
<feBlend mode="normal" in2="BackgroundImageFix" result="effect1_dropShadow_64_1986"/>
<feBlend mode="normal" in="SourceGraphic" in2="effect1_dropShadow_64_1986" result="shape"/>
<feGaussianBlur stdDeviation="2" result="effect2_foregroundBlur_64_1986"/>
</filter>
<filter id="filter8_df_64_1986" x="546" y="171" width="102" height="102" filterUnits="userSpaceOnUse" color-interpolation-filters="sRGB">
<feFlood flood-opacity="0" result="BackgroundImageFix"/>
<feColorMatrix in="SourceAlpha" type="matrix" values="0 0 0 0 0 0 0 0 0 0 0 0 0 0 0 0 0 0 127 0" result="hardAlpha"/>
<feOffset dx="1" dy="4"/>
<feGaussianBlur stdDeviation="16"/>
<feComposite in2="hardAlpha" operator="out"/>
<feColorMatrix type="matrix" values="0 0 0 0 0.666667 0 0 0 0 0.556829 0 0 0 0 0.261111 0 0 0 0.95 0"/>
<feBlend mode="normal" in2="BackgroundImageFix" result="effect1_dropShadow_64_1986"/>
<feBlend mode="normal" in="SourceGraphic" in2="effect1_dropShadow_64_1986" result="shape"/>
<feGaussianBlur stdDeviation="1.5" result="effect2_foregroundBlur_64_1986"/>
</filter>
<linearGradient id="paint0_linear_64_1986" x1="144.075" y1="215" x2="8.93428" y2="211.657" gradientUnits="userSpaceOnUse">
<stop stop-color="#00C1AA"/>
<stop offset="1" stop-color="#D0D0D0"/>
</linearGradient>
<linearGradient id="paint1_linear_64_1986" x1="472.075" y1="73" x2="336.934" y2="69.6569" gradientUnits="userSpaceOnUse">
<stop stop-color="#301272"/>
<stop offset="1" stop-color="#24A494"/>
</linearGradient>
</defs>
</svg>
