<svg width="209" height="209" viewBox="0 0 209 209" fill="none" xmlns="http://www.w3.org/2000/svg">
<circle cx="201.775" cy="71.4516" r="6.29032" fill="#F9F9F9"/>
<circle cx="201.775" cy="169.194" r="6.29032" fill="#F9F9F9"/>
<circle cx="104.033" cy="71.4516" r="6.29032" fill="#F9F9F9"/>
<circle cx="104.033" cy="169.194" r="6.29032" fill="#F9F9F9"/>
<circle cx="6.29032" cy="71.4516" r="6.29032" fill="#F9F9F9"/>
<circle cx="6.29032" cy="169.194" r="6.29032" fill="#F9F9F9"/>
<circle cx="169.194" cy="71.4516" r="6.29032" fill="#F9F9F9"/>
<circle cx="169.194" cy="169.194" r="6.29032" fill="#F9F9F9"/>
<circle cx="71.4517" cy="71.4516" r="6.29032" fill="#F9F9F9"/>
<circle cx="71.4517" cy="169.194" r="6.29032" fill="#F9F9F9"/>
<circle cx="136.613" cy="71.4516" r="6.29032" fill="#F9F9F9"/>
<circle cx="136.613" cy="169.194" r="6.29032" fill="#F9F9F9"/>
<circle cx="38.8709" cy="71.4516" r="6.29032" fill="#F9F9F9"/>
<circle cx="38.8709" cy="169.194" r="6.29032" fill="#F9F9F9"/>
<circle cx="201.775" cy="6.29032" r="6.29032" fill="#F9F9F9"/>
<circle cx="104.033" cy="6.29032" r="6.29032" fill="#F9F9F9"/>
<circle cx="6.29032" cy="6.29032" r="6.29032" fill="#F9F9F9"/>
<circle cx="169.194" cy="6.29032" r="6.29032" fill="#F9F9F9"/>
<circle cx="71.4517" cy="6.29032" r="6.29032" fill="#F9F9F9"/>
<circle cx="136.613" cy="6.29032" r="6.29032" fill="#F9F9F9"/>
<circle cx="201.775" cy="104.032" r="6.29032" fill="#F9F9F9"/>
<circle cx="201.775" cy="201.774" r="6.29032" fill="#F9F9F9"/>
<circle cx="104.033" cy="104.032" r="6.29032" fill="#F9F9F9"/>
<circle cx="104.033" cy="201.774" r="6.29032" fill="#F9F9F9"/>
<circle cx="6.29032" cy="104.032" r="6.29032" fill="#F9F9F9"/>
<circle cx="169.194" cy="104.032" r="6.29032" fill="#F9F9F9"/>
<circle cx="169.194" cy="201.774" r="6.29032" fill="#F9F9F9"/>
<circle cx="71.4517" cy="104.032" r="6.29032" fill="#F9F9F9"/>
<circle cx="71.4517" cy="201.774" r="6.29032" fill="#F9F9F9"/>
<circle cx="136.613" cy="104.032" r="6.29032" fill="#F9F9F9"/>
<circle cx="136.613" cy="201.774" r="6.29032" fill="#F9F9F9"/>
<circle cx="38.8709" cy="104.032" r="6.29032" fill="#F9F9F9"/>
<circle cx="38.8709" cy="201.774" r="6.29032" fill="#F9F9F9"/>
<circle cx="201.775" cy="38.8709" r="6.29032" fill="#F9F9F9"/>
<circle cx="104.033" cy="38.8709" r="6.29032" fill="#F9F9F9"/>
<circle cx="6.29032" cy="38.8709" r="6.29032" fill="#F9F9F9"/>
<circle cx="169.194" cy="38.8709" r="6.29032" fill="#F9F9F9"/>
<circle cx="71.4517" cy="38.8709" r="6.29032" fill="#F9F9F9"/>
<circle cx="38.8709" cy="6.29032" r="6.29032" fill="#F9F9F9"/>
<circle cx="136.613" cy="38.8709" r="6.29032" fill="#F9F9F9"/>
<circle cx="38.8709" cy="38.8709" r="6.29032" fill="#F9F9F9"/>
<circle cx="201.775" cy="136.613" r="6.29032" fill="#F9F9F9"/>
<circle cx="104.033" cy="136.613" r="6.29032" fill="#F9F9F9"/>
<circle cx="6.29032" cy="136.613" r="6.29032" fill="#F9F9F9"/>
<circle cx="6.29032" cy="201.774" r="6.29032" fill="#F9F9F9"/>
<circle cx="169.194" cy="136.613" r="6.29032" fill="#F9F9F9"/>
<circle cx="71.4517" cy="136.613" r="6.29032" fill="#F9F9F9"/>
<circle cx="136.613" cy="136.613" r="6.29032" fill="#F9F9F9"/>
<circle cx="38.8709" cy="136.613" r="6.29032" fill="#F9F9F9"/>
</svg>
